<svg width="28" height="28" viewBox="0 0 28 28" fill="none" xmlns="http://www.w3.org/2000/svg">
<path fill-rule="evenodd" clip-rule="evenodd" d="M24.5006 12C24.5006 16.9706 20.4712 21 15.5006 21C10.5301 21 6.50063 16.9706 6.50063 12C6.50063 7.02944 10.5301 3 15.5006 3C20.4712 3 24.5006 7.02944 24.5006 12ZM27.5006 12C27.5006 18.6274 22.128 24 15.5006 24C12.7287 24 10.1762 23.0601 8.14456 21.4816L2.62132 27.0049L0.5 24.8836L6.02271 19.3609C4.44199 17.3284 3.50063 14.7742 3.50063 12C3.50063 5.37258 8.87322 0 15.5006 0C22.128 0 27.5006 5.37258 27.5006 12Z" fill="white"/>
</svg>
